<mxfile host="app.diagrams.net" modified="2023-11-28T02:45:13.827Z" agent="5.0 (Macintosh; Intel Mac OS X 10_15_7) AppleWebKit/537.36 (KHTML, like Gecko) Chrome/119.0.0.0 Safari/537.36" etag="fw-bsIXIjmxFfN6adeQl" version="16.0.3" type="github">
  <diagram id="e7jxaDOpjpu6YRROCkMF" name="Page-1">
    <mxGraphModel dx="850" dy="470" grid="1" gridSize="10" guides="1" tooltips="1" connect="1" arrows="1" fold="1" page="1" pageScale="1" pageWidth="850" pageHeight="1100" math="1" shadow="0">
      <root>
        <mxCell id="0" />
        <mxCell id="1" parent="0" />
      </root>
    </mxGraphModel>
  </diagram>
</mxfile>
